<svg xmlns="http://www.w3.org/2000/svg" xmlns:xlink="http://www.w3.org/1999/xlink" width="311" zoomAndPan="magnify" viewBox="0 0 233.25 73.499998" height="98" preserveAspectRatio="xMidYMid meet" version="1.0"><defs><clipPath id="f0815b439e"><path d="M 0.414062 0 L 232.089844 0 L 232.089844 72.34375 L 0.414062 72.34375 Z M 0.414062 0 " clip-rule="nonzero"/></clipPath><clipPath id="70c9427f12"><path d="M 8.839844 20.226562 L 50 20.226562 L 50 55.808594 L 8.839844 55.808594 Z M 8.839844 20.226562 " clip-rule="nonzero"/></clipPath></defs><g clip-path="url(#f0815b439e)"><path fill="#ffffff" d="M 0.414062 0 L 232.136719 0 L 232.136719 72.34375 L 0.414062 72.34375 Z M 0.414062 0 " fill-opacity="1" fill-rule="nonzero"/></g><path fill="#000000" d="M 29.777344 42.15625 C 29.761719 42.15625 29.75 42.15625 29.730469 42.15625 C 29.597656 42.136719 29.472656 42.058594 29.421875 41.929688 L 27.226562 37.027344 C 27.171875 36.90625 27.183594 36.765625 27.261719 36.648438 C 27.34375 36.535156 27.480469 36.480469 27.613281 36.492188 L 32.96875 37.050781 C 33.105469 37.070312 33.226562 37.152344 33.28125 37.277344 C 33.339844 37.402344 33.328125 37.539062 33.246094 37.65625 L 30.074219 42 C 30.011719 42.097656 29.894531 42.15625 29.777344 42.15625 Z M 27.578125 36.539062 C 27.472656 36.539062 27.375 36.59375 27.308594 36.679688 C 27.238281 36.773438 27.226562 36.898438 27.273438 37.011719 L 29.46875 41.910156 C 29.519531 42.015625 29.621094 42.089844 29.742188 42.101562 C 29.867188 42.113281 29.976562 42.066406 30.046875 41.96875 L 33.214844 37.628906 C 33.285156 37.535156 33.296875 37.40625 33.25 37.296875 C 33.199219 37.191406 33.09375 37.109375 32.976562 37.105469 L 27.621094 36.539062 C 27.601562 36.539062 27.589844 36.539062 27.578125 36.539062 Z M 27.578125 36.539062 " fill-opacity="1" fill-rule="nonzero"/><path fill="#000000" d="M 29.601562 42.605469 C 29.578125 42.605469 29.554688 42.605469 29.527344 42.597656 C 29.375 42.582031 29.25 42.476562 29.191406 42.335938 L 27.054688 36.773438 C 26.996094 36.632812 27.019531 36.476562 27.117188 36.351562 C 27.21875 36.238281 27.363281 36.183594 27.515625 36.203125 L 33.425781 37.132812 C 33.582031 37.15625 33.707031 37.261719 33.757812 37.402344 C 33.816406 37.539062 33.792969 37.703125 33.695312 37.820312 L 29.929688 42.445312 C 29.855469 42.546875 29.730469 42.605469 29.601562 42.605469 Z M 27.449219 36.242188 C 27.339844 36.242188 27.234375 36.289062 27.160156 36.375 C 27.070312 36.480469 27.054688 36.613281 27.101562 36.75 L 29.25 42.3125 C 29.296875 42.433594 29.410156 42.523438 29.539062 42.546875 C 29.671875 42.570312 29.800781 42.515625 29.886719 42.410156 L 33.660156 37.785156 C 33.746094 37.679688 33.765625 37.535156 33.71875 37.414062 C 33.671875 37.285156 33.558594 37.195312 33.425781 37.179688 L 27.515625 36.25 C 27.496094 36.25 27.472656 36.242188 27.449219 36.242188 Z M 27.449219 36.242188 " fill-opacity="1" fill-rule="nonzero"/><path fill="#000000" d="M 29.386719 43.09375 C 29.355469 43.09375 29.320312 43.085938 29.285156 43.082031 C 29.117188 43.039062 28.988281 42.929688 28.9375 42.761719 L 26.878906 36.46875 C 26.820312 36.308594 26.859375 36.132812 26.976562 36.011719 C 27.089844 35.882812 27.257812 35.828125 27.425781 35.859375 L 33.929688 37.238281 C 34.097656 37.277344 34.234375 37.390625 34.285156 37.550781 C 34.34375 37.714844 34.304688 37.890625 34.1875 38.019531 L 29.742188 42.929688 C 29.644531 43.035156 29.519531 43.09375 29.386719 43.09375 Z M 26.929688 36.445312 L 28.988281 42.742188 C 29.027344 42.882812 29.152344 42.988281 29.296875 43.015625 C 29.445312 43.050781 29.597656 43.003906 29.695312 42.890625 L 34.140625 37.972656 C 34.238281 37.867188 34.269531 37.710938 34.226562 37.570312 C 34.179688 37.429688 34.0625 37.324219 33.917969 37.289062 L 27.410156 35.917969 C 27.261719 35.882812 27.117188 35.933594 27.019531 36.039062 C 26.917969 36.15625 26.890625 36.308594 26.929688 36.445312 Z M 26.929688 36.445312 " fill-opacity="1" fill-rule="nonzero"/><path fill="#000000" d="M 29.117188 43.617188 C 29.074219 43.617188 29.023438 43.609375 28.984375 43.605469 C 28.796875 43.550781 28.660156 43.414062 28.609375 43.230469 L 26.695312 36.125 C 26.648438 35.941406 26.695312 35.753906 26.832031 35.621094 C 26.972656 35.484375 27.160156 35.433594 27.339844 35.484375 L 34.476562 37.390625 C 34.664062 37.441406 34.800781 37.582031 34.851562 37.761719 C 34.898438 37.949219 34.851562 38.132812 34.710938 38.269531 L 29.492188 43.464844 C 29.390625 43.5625 29.261719 43.617188 29.117188 43.617188 Z M 26.761719 36.101562 L 28.679688 43.210938 C 28.71875 43.371094 28.84375 43.496094 29.003906 43.535156 C 29.167969 43.582031 29.332031 43.535156 29.449219 43.417969 L 34.675781 38.214844 C 34.792969 38.097656 34.839844 37.9375 34.792969 37.773438 C 34.753906 37.609375 34.628906 37.488281 34.464844 37.449219 L 27.328125 35.539062 C 27.171875 35.496094 27 35.539062 26.882812 35.660156 C 26.761719 35.777344 26.71875 35.945312 26.761719 36.101562 Z M 26.761719 36.101562 " fill-opacity="1" fill-rule="nonzero"/><path fill="#000000" d="M 28.800781 44.191406 C 28.742188 44.191406 28.679688 44.179688 28.613281 44.164062 C 28.414062 44.097656 28.261719 43.9375 28.222656 43.726562 L 26.515625 35.730469 C 26.472656 35.519531 26.539062 35.316406 26.695312 35.171875 C 26.855469 35.03125 27.070312 34.992188 27.269531 35.054688 L 35.074219 37.582031 C 35.277344 37.644531 35.425781 37.808594 35.464844 38.019531 C 35.511719 38.222656 35.449219 38.429688 35.285156 38.570312 L 29.1875 44.035156 C 29.082031 44.132812 28.941406 44.1875 28.800781 44.191406 Z M 27.089844 35.097656 C 26.964844 35.097656 26.84375 35.144531 26.75 35.230469 C 26.613281 35.351562 26.554688 35.53125 26.589844 35.714844 L 28.296875 43.703125 C 28.339844 43.882812 28.46875 44.023438 28.644531 44.085938 C 28.820312 44.140625 29.011719 44.105469 29.144531 43.976562 L 35.242188 38.511719 C 35.378906 38.382812 35.441406 38.210938 35.402344 38.03125 C 35.367188 37.847656 35.230469 37.703125 35.058594 37.644531 L 27.25 35.121094 C 27.195312 35.109375 27.148438 35.097656 27.089844 35.097656 Z M 27.089844 35.097656 " fill-opacity="1" fill-rule="nonzero"/><path fill="#000000" d="M 28.414062 44.796875 C 28.339844 44.796875 28.257812 44.78125 28.175781 44.757812 C 27.960938 44.675781 27.808594 44.484375 27.765625 44.25 L 26.339844 35.28125 C 26.304688 35.050781 26.390625 34.828125 26.574219 34.675781 C 26.761719 34.53125 26.996094 34.496094 27.222656 34.578125 L 35.734375 37.832031 C 35.957031 37.914062 36.109375 38.105469 36.144531 38.335938 C 36.183594 38.570312 36.097656 38.796875 35.910156 38.941406 L 28.820312 44.65625 C 28.703125 44.75 28.5625 44.796875 28.414062 44.796875 Z M 26.984375 34.613281 C 26.855469 34.613281 26.730469 34.660156 26.625 34.742188 C 26.46875 34.871094 26.390625 35.066406 26.421875 35.265625 L 27.847656 44.234375 C 27.882812 44.4375 28.011719 44.605469 28.210938 44.675781 C 28.402344 44.746094 28.613281 44.710938 28.773438 44.589844 L 35.859375 38.878906 C 36.015625 38.746094 36.09375 38.546875 36.058594 38.347656 C 36.027344 38.144531 35.894531 37.976562 35.699219 37.90625 L 27.183594 34.652344 C 27.125 34.628906 27.054688 34.613281 26.984375 34.613281 Z M 26.984375 34.613281 " fill-opacity="1" fill-rule="nonzero"/><path fill="#000000" d="M 27.949219 45.457031 C 27.847656 45.457031 27.75 45.4375 27.65625 45.390625 C 27.410156 45.285156 27.25 45.066406 27.226562 44.808594 L 26.164062 34.777344 C 26.140625 34.515625 26.246094 34.269531 26.460938 34.117188 C 26.671875 33.96875 26.941406 33.9375 27.183594 34.042969 L 36.441406 38.144531 C 36.683594 38.25 36.839844 38.464844 36.871094 38.726562 C 36.894531 38.988281 36.789062 39.234375 36.570312 39.386719 L 28.375 45.320312 C 28.25 45.414062 28.101562 45.457031 27.949219 45.457031 Z M 26.890625 34.078125 C 26.753906 34.078125 26.625 34.117188 26.515625 34.195312 C 26.328125 34.328125 26.230469 34.542969 26.257812 34.769531 L 27.320312 44.804688 C 27.339844 45.035156 27.484375 45.222656 27.691406 45.316406 C 27.902344 45.410156 28.132812 45.386719 28.320312 45.25 L 36.519531 39.320312 C 36.707031 39.1875 36.804688 38.972656 36.777344 38.746094 C 36.753906 38.519531 36.613281 38.328125 36.402344 38.234375 L 27.148438 34.128906 C 27.066406 34.089844 26.976562 34.078125 26.890625 34.078125 Z M 26.890625 34.078125 " fill-opacity="1" fill-rule="nonzero"/><path fill="#000000" d="M 27.402344 46.164062 C 27.273438 46.164062 27.152344 46.136719 27.035156 46.078125 C 26.777344 45.949219 26.613281 45.699219 26.597656 45.410156 L 26.007812 34.21875 C 25.988281 33.925781 26.128906 33.660156 26.375 33.5 C 26.621094 33.34375 26.917969 33.328125 27.175781 33.460938 L 37.207031 38.546875 C 37.464844 38.679688 37.628906 38.929688 37.648438 39.214844 C 37.660156 39.507812 37.523438 39.773438 37.277344 39.933594 L 27.835938 46.039062 C 27.707031 46.125 27.554688 46.164062 27.402344 46.164062 Z M 26.8125 33.464844 C 26.679688 33.464844 26.542969 33.5 26.425781 33.578125 C 26.21875 33.71875 26.09375 33.949219 26.113281 34.207031 L 26.703125 45.398438 C 26.714844 45.648438 26.859375 45.875 27.082031 45.984375 C 27.308594 46.101562 27.578125 46.089844 27.789062 45.949219 L 37.230469 39.84375 C 37.449219 39.710938 37.570312 39.472656 37.554688 39.214844 C 37.542969 38.964844 37.394531 38.746094 37.167969 38.628906 L 27.140625 33.542969 C 27.03125 33.488281 26.917969 33.464844 26.8125 33.464844 Z M 26.8125 33.464844 " fill-opacity="1" fill-rule="nonzero"/><path fill="#000000" d="M 26.761719 46.917969 C 26.609375 46.917969 26.457031 46.882812 26.3125 46.800781 C 26.035156 46.636719 25.867188 46.351562 25.867188 46.027344 L 25.867188 33.570312 C 25.867188 33.246094 26.035156 32.960938 26.3125 32.796875 C 26.589844 32.632812 26.925781 32.632812 27.207031 32.796875 L 38.039062 39.023438 C 38.320312 39.1875 38.488281 39.472656 38.488281 39.796875 C 38.488281 40.117188 38.320312 40.402344 38.039062 40.566406 L 27.207031 46.792969 C 27.070312 46.875 26.914062 46.917969 26.761719 46.917969 Z M 26.761719 32.792969 C 26.625 32.792969 26.492188 32.820312 26.367188 32.894531 C 26.125 33.035156 25.972656 33.285156 25.972656 33.570312 L 25.972656 46.027344 C 25.972656 46.304688 26.125 46.554688 26.367188 46.699219 C 26.613281 46.839844 26.902344 46.839844 27.152344 46.699219 L 37.984375 40.472656 C 38.230469 40.328125 38.378906 40.078125 38.378906 39.796875 C 38.378906 39.511719 38.230469 39.261719 37.984375 39.125 L 27.152344 32.894531 C 27.03125 32.820312 26.894531 32.792969 26.761719 32.792969 Z M 26.761719 32.792969 " fill-opacity="1" fill-rule="nonzero"/><path fill="#000000" d="M 26.007812 47.714844 C 25.820312 47.714844 25.632812 47.65625 25.460938 47.550781 C 25.164062 47.351562 24.996094 47.027344 25.019531 46.664062 L 25.742188 32.851562 C 25.761719 32.488281 25.964844 32.179688 26.289062 32.023438 C 26.601562 31.859375 26.976562 31.882812 27.273438 32.074219 L 38.933594 39.613281 C 39.238281 39.808594 39.40625 40.136719 39.382812 40.492188 C 39.367188 40.851562 39.167969 41.160156 38.839844 41.324219 L 26.460938 47.597656 C 26.3125 47.671875 26.160156 47.714844 26.007812 47.714844 Z M 26.738281 32.035156 C 26.601562 32.035156 26.472656 32.0625 26.34375 32.132812 C 26.066406 32.273438 25.882812 32.546875 25.871094 32.855469 L 25.140625 46.671875 C 25.125 46.980469 25.277344 47.269531 25.539062 47.445312 C 25.800781 47.613281 26.128906 47.632812 26.402344 47.488281 L 38.792969 41.207031 C 39.074219 41.066406 39.253906 40.792969 39.265625 40.484375 C 39.285156 40.171875 39.136719 39.886719 38.875 39.710938 L 27.210938 32.175781 C 27.066406 32.082031 26.902344 32.035156 26.738281 32.035156 Z M 26.738281 32.035156 " fill-opacity="1" fill-rule="nonzero"/><path fill="#000000" d="M 25.128906 48.550781 C 24.902344 48.550781 24.679688 48.480469 24.488281 48.335938 C 24.164062 48.101562 23.996094 47.730469 24.035156 47.335938 L 25.648438 32.046875 C 25.695312 31.644531 25.9375 31.3125 26.304688 31.15625 C 26.667969 30.992188 27.078125 31.039062 27.402344 31.273438 L 39.898438 40.3125 C 40.21875 40.542969 40.390625 40.914062 40.347656 41.3125 C 40.300781 41.707031 40.0625 42.039062 39.691406 42.195312 L 25.585938 48.453125 C 25.441406 48.515625 25.289062 48.550781 25.128906 48.550781 Z M 26.75 31.195312 C 26.621094 31.195312 26.480469 31.21875 26.355469 31.285156 C 26.042969 31.425781 25.824219 31.714844 25.789062 32.058594 L 24.175781 47.351562 C 24.136719 47.703125 24.28125 48.027344 24.566406 48.230469 C 24.855469 48.433594 25.207031 48.46875 25.53125 48.324219 L 39.640625 42.074219 C 39.957031 41.929688 40.171875 41.644531 40.207031 41.292969 C 40.25 40.945312 40.101562 40.621094 39.816406 40.414062 L 27.320312 31.382812 C 27.148438 31.253906 26.949219 31.195312 26.75 31.195312 Z M 26.75 31.195312 " fill-opacity="1" fill-rule="nonzero"/><path fill="#000000" d="M 24.113281 49.425781 C 23.84375 49.425781 23.574219 49.332031 23.347656 49.15625 C 23.007812 48.878906 22.835938 48.453125 22.914062 48.015625 L 25.597656 31.144531 L 25.671875 31.15625 L 25.597656 31.144531 C 25.667969 30.707031 25.953125 30.359375 26.367188 30.203125 C 26.785156 30.039062 27.234375 30.113281 27.578125 30.386719 L 40.914062 41.144531 C 41.261719 41.417969 41.425781 41.839844 41.355469 42.277344 C 41.285156 42.714844 40.996094 43.070312 40.582031 43.226562 L 24.554688 49.347656 C 24.417969 49.402344 24.269531 49.425781 24.113281 49.425781 Z M 26.8125 30.265625 C 26.679688 30.265625 26.550781 30.285156 26.421875 30.335938 C 26.058594 30.46875 25.808594 30.785156 25.75 31.167969 L 23.066406 48.039062 C 23.007812 48.417969 23.148438 48.796875 23.445312 49.035156 C 23.75 49.277344 24.148438 49.335938 24.511719 49.203125 L 40.535156 43.082031 C 40.890625 42.941406 41.144531 42.632812 41.214844 42.25 C 41.273438 41.863281 41.125 41.492188 40.828125 41.246094 L 27.484375 30.503906 C 27.285156 30.347656 27.054688 30.265625 26.8125 30.265625 Z M 26.8125 30.265625 " fill-opacity="1" fill-rule="nonzero"/><path fill="#000000" d="M 22.949219 50.34375 C 22.621094 50.34375 22.300781 50.226562 22.042969 50 C 21.675781 49.667969 21.515625 49.1875 21.621094 48.707031 L 25.585938 30.144531 C 25.691406 29.667969 26.03125 29.289062 26.496094 29.136719 C 26.972656 28.984375 27.46875 29.097656 27.832031 29.421875 L 42.003906 42.121094 C 42.371094 42.445312 42.527344 42.929688 42.421875 43.414062 C 42.320312 43.890625 41.980469 44.269531 41.511719 44.417969 L 23.375 50.28125 C 23.234375 50.328125 23.089844 50.34375 22.949219 50.34375 Z M 25.667969 30.160156 L 25.75 30.179688 L 21.785156 48.742188 C 21.699219 49.164062 21.832031 49.585938 22.152344 49.867188 C 22.476562 50.15625 22.90625 50.25 23.316406 50.109375 L 41.453125 44.25 C 41.863281 44.117188 42.160156 43.785156 42.25 43.367188 C 42.335938 42.945312 42.203125 42.523438 41.886719 42.242188 L 27.714844 29.539062 C 27.390625 29.253906 26.960938 29.160156 26.550781 29.292969 C 26.140625 29.429688 25.835938 29.757812 25.75 30.179688 Z M 25.667969 30.160156 " fill-opacity="1" fill-rule="nonzero"/><path fill="#000000" d="M 21.605469 51.296875 C 21.210938 51.296875 20.832031 51.148438 20.546875 50.855469 C 20.152344 50.472656 20.007812 49.925781 20.148438 49.40625 L 25.632812 29.03125 C 25.777344 28.507812 26.175781 28.105469 26.707031 27.96875 C 27.238281 27.828125 27.785156 27.972656 28.167969 28.355469 L 43.148438 43.265625 C 43.535156 43.65625 43.679688 44.199219 43.539062 44.722656 C 43.398438 45.25 42.996094 45.648438 42.46875 45.792969 L 22 51.246094 C 21.875 51.28125 21.738281 51.296875 21.605469 51.296875 Z M 25.8125 29.078125 L 20.328125 49.449219 C 20.207031 49.914062 20.335938 50.386719 20.675781 50.722656 C 21.011719 51.058594 21.488281 51.1875 21.953125 51.066406 L 42.417969 45.605469 C 42.886719 45.480469 43.234375 45.128906 43.351562 44.675781 C 43.480469 44.210938 43.347656 43.738281 43.007812 43.402344 L 28.03125 28.484375 C 27.691406 28.148438 27.21875 28.019531 26.75 28.140625 C 26.292969 28.265625 25.9375 28.613281 25.8125 29.078125 Z M 25.8125 29.078125 " fill-opacity="1" fill-rule="nonzero"/><path fill="#000000" d="M 20.066406 52.277344 C 19.597656 52.277344 19.148438 52.078125 18.828125 51.71875 C 18.421875 51.269531 18.289062 50.660156 18.476562 50.082031 L 25.75 27.792969 C 25.9375 27.214844 26.402344 26.796875 27 26.667969 C 27.597656 26.546875 28.191406 26.738281 28.601562 27.1875 L 44.351562 44.605469 C 44.761719 45.054688 44.890625 45.664062 44.703125 46.242188 C 44.515625 46.816406 44.050781 47.234375 43.453125 47.363281 L 20.429688 52.234375 C 20.300781 52.265625 20.183594 52.277344 20.066406 52.277344 Z M 25.847656 27.832031 L 25.949219 27.863281 L 18.675781 50.144531 C 18.511719 50.652344 18.621094 51.1875 18.980469 51.578125 C 19.335938 51.96875 19.863281 52.136719 20.382812 52.03125 L 43.40625 47.15625 C 43.921875 47.050781 44.335938 46.675781 44.5 46.175781 C 44.664062 45.671875 44.546875 45.136719 44.1875 44.746094 L 28.445312 27.332031 C 28.089844 26.941406 27.566406 26.773438 27.046875 26.882812 C 26.527344 26.996094 26.117188 27.363281 25.953125 27.863281 Z M 25.847656 27.832031 " fill-opacity="1" fill-rule="nonzero"/><path fill="#000000" d="M 18.320312 53.277344 C 17.757812 53.277344 17.238281 53.03125 16.875 52.585938 C 16.449219 52.0625 16.335938 51.375 16.582031 50.746094 L 25.960938 26.4375 C 26.199219 25.8125 26.742188 25.371094 27.410156 25.265625 C 28.082031 25.160156 28.730469 25.40625 29.15625 25.929688 L 45.617188 46.164062 C 46.042969 46.6875 46.152344 47.375 45.90625 48.003906 C 45.667969 48.632812 45.117188 49.074219 44.453125 49.175781 L 18.609375 53.25 C 18.515625 53.265625 18.417969 53.277344 18.320312 53.277344 Z M 27.703125 25.476562 C 27.613281 25.476562 27.527344 25.480469 27.4375 25.492188 C 26.855469 25.585938 26.378906 25.972656 26.171875 26.519531 L 16.796875 50.828125 C 16.582031 51.375 16.679688 51.972656 17.054688 52.433594 C 17.425781 52.886719 18.003906 53.109375 18.582031 53.015625 L 44.417969 48.949219 C 45 48.855469 45.476562 48.476562 45.6875 47.921875 C 45.894531 47.375 45.796875 46.777344 45.429688 46.316406 L 28.964844 26.082031 C 28.65625 25.691406 28.191406 25.476562 27.703125 25.476562 Z M 27.703125 25.476562 " fill-opacity="1" fill-rule="nonzero"/><path fill="#000000" d="M 16.324219 54.277344 C 15.664062 54.277344 15.050781 53.96875 14.652344 53.421875 C 14.207031 52.816406 14.125 52.050781 14.4375 51.363281 L 26.257812 24.941406 C 26.5625 24.261719 27.195312 23.800781 27.9375 23.722656 C 28.683594 23.648438 29.390625 23.964844 29.835938 24.5625 L 46.914062 47.976562 C 47.359375 48.574219 47.441406 49.34375 47.136719 50.03125 C 46.824219 50.710938 46.199219 51.171875 45.453125 51.246094 L 16.554688 54.265625 C 16.476562 54.273438 16.402344 54.277344 16.324219 54.277344 Z M 28.164062 23.96875 C 28.09375 23.96875 28.03125 23.972656 27.964844 23.980469 C 27.316406 24.050781 26.761719 24.453125 26.492188 25.046875 L 14.671875 51.472656 C 14.402344 52.074219 14.472656 52.742188 14.863281 53.277344 C 15.25 53.800781 15.867188 54.082031 16.523438 54.011719 L 45.429688 50.988281 C 46.078125 50.921875 46.632812 50.519531 46.894531 49.925781 C 47.164062 49.332031 47.09375 48.664062 46.710938 48.125 L 29.621094 24.71875 C 29.273438 24.242188 28.742188 23.96875 28.164062 23.96875 Z M 28.164062 23.96875 " fill-opacity="1" fill-rule="nonzero"/><path fill="#000000" d="M 14.074219 55.277344 C 13.289062 55.277344 12.578125 54.894531 12.144531 54.230469 C 11.6875 53.539062 11.648438 52.683594 12.023438 51.945312 L 26.679688 23.292969 C 27.058594 22.554688 27.785156 22.089844 28.613281 22.042969 C 29.445312 22 30.214844 22.390625 30.671875 23.089844 L 48.257812 50.046875 C 48.714844 50.746094 48.753906 51.601562 48.382812 52.339844 C 48 53.078125 47.277344 53.550781 46.445312 53.589844 L 14.195312 55.273438 C 14.15625 55.277344 14.113281 55.277344 14.074219 55.277344 Z M 26.9375 23.425781 L 12.273438 52.066406 C 11.941406 52.710938 11.988281 53.464844 12.378906 54.074219 C 12.777344 54.6875 13.449219 55.027344 14.179688 54.988281 L 46.429688 53.304688 C 47.152344 53.269531 47.789062 52.863281 48.125 52.210938 C 48.457031 51.566406 48.410156 50.816406 48.019531 50.203125 L 30.433594 23.246094 C 30.035156 22.636719 29.355469 22.292969 28.632812 22.332031 C 27.90625 22.367188 27.269531 22.78125 26.9375 23.425781 Z M 26.9375 23.425781 " fill-opacity="1" fill-rule="nonzero"/><g clip-path="url(#70c9427f12)"><path fill="#000000" d="M 47.40625 56.257812 L 11.53125 56.257812 C 10.601562 56.257812 9.777344 55.78125 9.308594 54.980469 C 8.847656 54.183594 8.847656 53.230469 9.308594 52.433594 L 27.246094 21.5 L 27.386719 21.582031 L 27.246094 21.5 C 27.714844 20.699219 28.542969 20.226562 29.46875 20.226562 C 30.398438 20.226562 31.222656 20.703125 31.6875 21.5 L 49.625 52.433594 C 50.09375 53.230469 50.09375 54.183594 49.625 54.980469 C 49.171875 55.78125 48.335938 56.257812 47.40625 56.257812 Z M 29.46875 20.539062 C 28.660156 20.539062 27.929688 20.960938 27.527344 21.660156 L 9.589844 52.589844 C 9.1875 53.289062 9.1875 54.125 9.589844 54.820312 C 9.992188 55.519531 10.722656 55.9375 11.53125 55.9375 L 47.40625 55.9375 C 48.21875 55.9375 48.941406 55.519531 49.347656 54.820312 C 49.753906 54.125 49.753906 53.289062 49.347656 52.589844 L 31.410156 21.660156 C 31.003906 20.953125 30.28125 20.539062 29.46875 20.539062 Z M 29.46875 20.539062 " fill-opacity="1" fill-rule="nonzero"/></g><path fill="#000000" d="M 52.722656 39.390625 C 52.722656 37.519531 53.101562 35.871094 53.867188 34.457031 C 54.628906 33.046875 55.679688 31.953125 57.023438 31.175781 C 58.378906 30.398438 59.925781 30.011719 61.65625 30.011719 C 63.898438 30.011719 65.753906 30.558594 67.21875 31.640625 C 68.683594 32.726562 69.652344 34.234375 70.121094 36.15625 L 66.824219 36.15625 C 66.507812 35.054688 65.898438 34.1875 65 33.546875 C 64.109375 32.898438 62.992188 32.570312 61.65625 32.570312 C 59.925781 32.570312 58.519531 33.171875 57.445312 34.363281 C 56.371094 35.542969 55.832031 37.222656 55.832031 39.390625 C 55.832031 41.578125 56.371094 43.28125 57.445312 44.488281 C 58.519531 45.6875 59.925781 46.28125 61.65625 46.28125 C 62.992188 46.28125 64.109375 45.972656 65 45.351562 C 65.886719 44.734375 66.496094 43.839844 66.824219 42.675781 L 70.121094 42.675781 C 69.617188 44.554688 68.628906 46.050781 67.152344 47.167969 C 65.683594 48.285156 63.851562 48.84375 61.65625 48.84375 C 59.925781 48.84375 58.378906 48.460938 57.023438 47.679688 C 55.679688 46.90625 54.628906 45.8125 53.867188 44.398438 C 53.101562 42.972656 52.722656 41.300781 52.722656 39.390625 Z M 52.722656 39.390625 " fill-opacity="1" fill-rule="nonzero"/><path fill="#000000" d="M 75.710938 27.355469 C 75.132812 27.355469 74.640625 27.160156 74.238281 26.75 C 73.84375 26.351562 73.652344 25.859375 73.652344 25.285156 C 73.652344 24.714844 73.84375 24.230469 74.238281 23.839844 C 74.640625 23.441406 75.132812 23.234375 75.710938 23.234375 C 76.269531 23.234375 76.746094 23.441406 77.136719 23.839844 C 77.523438 24.230469 77.722656 24.714844 77.722656 25.285156 C 77.722656 25.859375 77.523438 26.351562 77.136719 26.75 C 76.746094 27.160156 76.269531 27.355469 75.710938 27.355469 Z M 77.183594 30.3125 L 77.183594 48.539062 L 74.144531 48.539062 L 74.144531 30.3125 Z M 77.183594 30.3125 " fill-opacity="1" fill-rule="nonzero"/><path fill="#000000" d="M 104.390625 29.988281 C 105.804688 29.988281 107.070312 30.285156 108.179688 30.871094 C 109.300781 31.449219 110.179688 32.328125 110.824219 33.503906 C 111.476562 34.683594 111.804688 36.109375 111.804688 37.785156 L 111.804688 48.539062 L 108.789062 48.539062 L 108.789062 38.226562 C 108.789062 36.410156 108.332031 35.027344 107.429688 34.0625 C 106.542969 33.101562 105.328125 32.617188 103.78125 32.617188 C 102.203125 32.617188 100.953125 33.125 100.019531 34.128906 C 99.082031 35.144531 98.613281 36.59375 98.613281 38.484375 L 98.613281 48.539062 L 95.597656 48.539062 L 95.597656 38.226562 C 95.597656 36.410156 95.140625 35.027344 94.242188 34.0625 C 93.335938 33.101562 92.121094 32.617188 90.59375 32.617188 C 89.003906 32.617188 87.742188 33.125 86.804688 34.128906 C 85.871094 35.144531 85.402344 36.59375 85.402344 38.484375 L 85.402344 48.539062 L 82.363281 48.539062 L 82.363281 30.3125 L 85.402344 30.3125 L 85.402344 32.945312 C 86.007812 31.984375 86.816406 31.253906 87.832031 30.753906 C 88.84375 30.242188 89.960938 29.988281 91.179688 29.988281 C 92.722656 29.988281 94.078125 30.332031 95.246094 31.011719 C 96.429688 31.699219 97.316406 32.703125 97.914062 34.039062 C 98.410156 32.75 99.253906 31.757812 100.4375 31.058594 C 101.621094 30.347656 102.941406 29.988281 104.390625 29.988281 Z M 104.390625 29.988281 " fill-opacity="1" fill-rule="nonzero"/><path fill="#000000" d="M 119.808594 33.664062 C 120.417969 32.628906 121.3125 31.757812 122.5 31.058594 C 123.699219 30.359375 125.082031 30.011719 126.660156 30.011719 C 128.28125 30.011719 129.753906 30.398438 131.082031 31.175781 C 132.402344 31.953125 133.449219 33.046875 134.214844 34.457031 C 134.976562 35.871094 135.363281 37.507812 135.363281 39.367188 C 135.363281 41.203125 134.976562 42.835938 134.214844 44.28125 C 133.449219 45.722656 132.402344 46.851562 131.082031 47.65625 C 129.753906 48.449219 128.28125 48.84375 126.660156 48.84375 C 125.101562 48.84375 123.722656 48.492188 122.523438 47.796875 C 121.335938 47.097656 120.429688 46.230469 119.808594 45.1875 L 119.808594 57.199219 L 116.769531 57.199219 L 116.769531 30.3125 L 119.808594 30.3125 Z M 132.25 39.367188 C 132.25 37.988281 131.96875 36.796875 131.410156 35.785156 C 130.847656 34.757812 130.085938 33.984375 129.140625 33.457031 C 128.207031 32.914062 127.164062 32.640625 126.03125 32.640625 C 124.90625 32.640625 123.867188 32.914062 122.921875 33.457031 C 121.984375 34.003906 121.222656 34.792969 120.652344 35.828125 C 120.089844 36.855469 119.808594 38.042969 119.808594 39.390625 C 119.808594 40.777344 120.089844 41.988281 120.652344 43.023438 C 121.222656 44.046875 121.984375 44.832031 122.921875 45.375 C 123.867188 45.921875 124.90625 46.1875 126.03125 46.1875 C 127.164062 46.1875 128.207031 45.921875 129.140625 45.375 C 130.085938 44.832031 130.847656 44.046875 131.410156 43.023438 C 131.96875 41.988281 132.25 40.765625 132.25 39.367188 Z M 132.25 39.367188 " fill-opacity="1" fill-rule="nonzero"/><path fill="#000000" d="M 139.351562 23.933594 L 142.394531 23.933594 L 142.394531 48.539062 L 139.351562 48.539062 Z M 139.351562 23.933594 " fill-opacity="1" fill-rule="nonzero"/><path fill="#000000" d="M 149.136719 27.355469 C 148.558594 27.355469 148.066406 27.160156 147.664062 26.75 C 147.273438 26.351562 147.078125 25.859375 147.078125 25.285156 C 147.078125 24.714844 147.273438 24.230469 147.664062 23.839844 C 148.066406 23.441406 148.558594 23.234375 149.136719 23.234375 C 149.699219 23.234375 150.171875 23.441406 150.5625 23.839844 C 150.949219 24.230469 151.148438 24.714844 151.148438 25.285156 C 151.148438 25.859375 150.949219 26.351562 150.5625 26.75 C 150.171875 27.160156 149.699219 27.355469 149.136719 27.355469 Z M 150.609375 30.3125 L 150.609375 48.539062 L 147.570312 48.539062 L 147.570312 30.3125 Z M 150.609375 30.3125 " fill-opacity="1" fill-rule="nonzero"/><path fill="#000000" d="M 163.25 32.804688 L 159.390625 32.804688 L 159.390625 48.539062 L 156.351562 48.539062 L 156.351562 32.804688 L 153.988281 32.804688 L 153.988281 30.3125 L 156.351562 30.3125 L 156.351562 29.007812 C 156.351562 26.976562 156.875 25.488281 157.941406 24.539062 C 159 23.597656 160.699219 23.121094 163.039062 23.121094 L 163.039062 25.65625 C 161.695312 25.65625 160.753906 25.925781 160.207031 26.449219 C 159.660156 26.960938 159.390625 27.816406 159.390625 29.007812 L 159.390625 30.3125 L 163.25 30.3125 Z M 163.25 32.804688 " fill-opacity="1" fill-rule="nonzero"/><path fill="#000000" d="M 182.566406 30.3125 L 171.527344 57.128906 L 168.394531 57.128906 L 171.992188 48.332031 L 164.605469 30.3125 L 167.972656 30.3125 L 173.726562 45.070312 L 179.40625 30.3125 Z M 182.566406 30.3125 " fill-opacity="1" fill-rule="nonzero"/><path fill="#000000" d="M 186.546875 48.75 C 185.964844 48.75 185.476562 48.546875 185.070312 48.144531 C 184.679688 47.742188 184.488281 47.253906 184.488281 46.679688 C 184.488281 46.109375 184.679688 45.617188 185.070312 45.210938 C 185.476562 44.808594 185.964844 44.605469 186.546875 44.605469 C 187.105469 44.605469 187.582031 44.808594 187.972656 45.210938 C 188.359375 45.617188 188.558594 46.109375 188.558594 46.679688 C 188.558594 47.253906 188.359375 47.742188 187.972656 48.144531 C 187.582031 48.546875 187.105469 48.75 186.546875 48.75 Z M 186.546875 48.75 " fill-opacity="1" fill-rule="nonzero"/><path fill="#000000" d="M 191.457031 39.367188 C 191.457031 37.507812 191.835938 35.871094 192.601562 34.457031 C 193.363281 33.046875 194.410156 31.953125 195.734375 31.175781 C 197.058594 30.398438 198.53125 30.011719 200.15625 30.011719 C 201.757812 30.011719 203.148438 30.359375 204.316406 31.058594 C 205.5 31.746094 206.386719 32.605469 206.984375 33.640625 L 206.984375 30.3125 L 210.046875 30.3125 L 210.046875 48.539062 L 206.984375 48.539062 L 206.984375 45.140625 C 206.375 46.210938 205.46875 47.097656 204.269531 47.796875 C 203.085938 48.492188 201.703125 48.84375 200.132812 48.84375 C 198.496094 48.84375 197.023438 48.449219 195.710938 47.65625 C 194.402344 46.851562 193.363281 45.722656 192.601562 44.28125 C 191.835938 42.835938 191.457031 41.203125 191.457031 39.367188 Z M 206.984375 39.390625 C 206.984375 38.011719 206.703125 36.820312 206.140625 35.808594 C 205.582031 34.78125 204.820312 34.003906 203.875 33.457031 C 202.9375 32.914062 201.898438 32.640625 200.761719 32.640625 C 199.625 32.640625 198.589844 32.914062 197.652344 33.457031 C 196.71875 33.984375 195.96875 34.757812 195.40625 35.785156 C 194.847656 36.796875 194.566406 37.988281 194.566406 39.367188 C 194.566406 40.765625 194.847656 41.988281 195.40625 43.023438 C 195.96875 44.046875 196.71875 44.832031 197.652344 45.375 C 198.589844 45.921875 199.625 46.1875 200.761719 46.1875 C 201.898438 46.1875 202.9375 45.921875 203.875 45.375 C 204.820312 44.832031 205.582031 44.046875 206.140625 43.023438 C 206.703125 41.988281 206.984375 40.777344 206.984375 39.390625 Z M 206.984375 39.390625 " fill-opacity="1" fill-rule="nonzero"/><path fill="#000000" d="M 216.753906 27.355469 C 216.171875 27.355469 215.683594 27.160156 215.277344 26.75 C 214.886719 26.351562 214.695312 25.859375 214.695312 25.285156 C 214.695312 24.714844 214.886719 24.230469 215.277344 23.839844 C 215.683594 23.441406 216.171875 23.234375 216.753906 23.234375 C 217.3125 23.234375 217.789062 23.441406 218.179688 23.839844 C 218.566406 24.230469 218.761719 24.714844 218.761719 25.285156 C 218.761719 25.859375 218.566406 26.351562 218.179688 26.75 C 217.789062 27.160156 217.3125 27.355469 216.753906 27.355469 Z M 218.226562 30.3125 L 218.226562 48.539062 L 215.1875 48.539062 L 215.1875 30.3125 Z M 218.226562 30.3125 " fill-opacity="1" fill-rule="nonzero"/></svg>